<mxfile host="app.diagrams.net" modified="2021-08-31T09:35:31.732Z" agent="5.0 (Macintosh; Intel Mac OS X 10_15_7) AppleWebKit/537.36 (KHTML, like Gecko) Chrome/92.0.4515.159 Safari/537.36 Edg/92.0.902.84" etag="StEqrdC6L_cTBH9XVLaI" version="15.0.3" type="github">
  <diagram id="gjjfhEqOlBLSCpjZTNxB" name="第 1 页">
    <mxGraphModel dx="2665" dy="1161" grid="1" gridSize="10" guides="1" tooltips="1" connect="1" arrows="1" fold="1" page="1" pageScale="1" pageWidth="827" pageHeight="1169" background="#DAD2D8" math="0" shadow="0">
      <root>
        <mxCell id="0" />
        <mxCell id="1" parent="0" />
        <mxCell id="bWsxu2lpcLckADZo8OrW-3" style="edgeStyle=orthogonalEdgeStyle;rounded=0;orthogonalLoop=1;jettySize=auto;html=1;entryX=0.5;entryY=0;entryDx=0;entryDy=0;labelBackgroundColor=#DAD2D8;strokeColor=#A8201A;fontColor=#143642;" edge="1" parent="1" source="bWsxu2lpcLckADZo8OrW-1" target="bWsxu2lpcLckADZo8OrW-2">
          <mxGeometry relative="1" as="geometry" />
        </mxCell>
        <mxCell id="bWsxu2lpcLckADZo8OrW-1" value="组装步骤列表&lt;br&gt;assembleTransStepMOList" style="rounded=1;whiteSpace=wrap;html=1;absoluteArcSize=1;arcSize=14;strokeWidth=2;fillColor=#FAE5C7;strokeColor=#0F8B8D;fontColor=#143642;" vertex="1" parent="1">
          <mxGeometry x="180" y="220" width="180" height="50" as="geometry" />
        </mxCell>
        <mxCell id="bWsxu2lpcLckADZo8OrW-5" style="edgeStyle=orthogonalEdgeStyle;rounded=0;orthogonalLoop=1;jettySize=auto;html=1;entryX=0.5;entryY=0;entryDx=0;entryDy=0;labelBackgroundColor=#DAD2D8;strokeColor=#A8201A;fontColor=#143642;" edge="1" parent="1" source="bWsxu2lpcLckADZo8OrW-2" target="bWsxu2lpcLckADZo8OrW-4">
          <mxGeometry relative="1" as="geometry" />
        </mxCell>
        <mxCell id="bWsxu2lpcLckADZo8OrW-2" value="前置校验&lt;br&gt;validateBeforeAccept" style="rounded=1;whiteSpace=wrap;html=1;absoluteArcSize=1;arcSize=14;strokeWidth=2;fillColor=#FAE5C7;strokeColor=#0F8B8D;fontColor=#143642;" vertex="1" parent="1">
          <mxGeometry x="180" y="300" width="180" height="50" as="geometry" />
        </mxCell>
        <mxCell id="bWsxu2lpcLckADZo8OrW-7" style="edgeStyle=orthogonalEdgeStyle;rounded=0;orthogonalLoop=1;jettySize=auto;html=1;entryX=0.5;entryY=0;entryDx=0;entryDy=0;labelBackgroundColor=#DAD2D8;strokeColor=#A8201A;fontColor=#143642;" edge="1" parent="1" source="bWsxu2lpcLckADZo8OrW-4" target="bWsxu2lpcLckADZo8OrW-6">
          <mxGeometry relative="1" as="geometry" />
        </mxCell>
        <mxCell id="bWsxu2lpcLckADZo8OrW-4" value="保存transFlowMO模型" style="rounded=1;whiteSpace=wrap;html=1;absoluteArcSize=1;arcSize=14;strokeWidth=2;fillColor=#FAE5C7;strokeColor=#0F8B8D;fontColor=#143642;" vertex="1" parent="1">
          <mxGeometry x="180" y="370" width="180" height="40" as="geometry" />
        </mxCell>
        <mxCell id="bWsxu2lpcLckADZo8OrW-11" style="edgeStyle=orthogonalEdgeStyle;rounded=0;orthogonalLoop=1;jettySize=auto;html=1;labelBackgroundColor=#DAD2D8;strokeColor=#A8201A;fontColor=#143642;" edge="1" parent="1" source="bWsxu2lpcLckADZo8OrW-6" target="bWsxu2lpcLckADZo8OrW-10">
          <mxGeometry relative="1" as="geometry" />
        </mxCell>
        <mxCell id="bWsxu2lpcLckADZo8OrW-6" value="保存所有步骤模型" style="rounded=1;whiteSpace=wrap;html=1;absoluteArcSize=1;arcSize=14;strokeWidth=2;fillColor=#FAE5C7;strokeColor=#0F8B8D;fontColor=#143642;" vertex="1" parent="1">
          <mxGeometry x="180" y="440" width="180" height="40" as="geometry" />
        </mxCell>
        <mxCell id="bWsxu2lpcLckADZo8OrW-13" style="edgeStyle=orthogonalEdgeStyle;rounded=0;orthogonalLoop=1;jettySize=auto;html=1;labelBackgroundColor=#DAD2D8;strokeColor=#A8201A;fontColor=#143642;" edge="1" parent="1" source="bWsxu2lpcLckADZo8OrW-10" target="bWsxu2lpcLckADZo8OrW-12">
          <mxGeometry relative="1" as="geometry" />
        </mxCell>
        <mxCell id="bWsxu2lpcLckADZo8OrW-10" value="受理完成处理" style="rounded=1;whiteSpace=wrap;html=1;absoluteArcSize=1;arcSize=14;strokeWidth=2;fillColor=#FAE5C7;strokeColor=#0F8B8D;fontColor=#143642;" vertex="1" parent="1">
          <mxGeometry x="180" y="500" width="180" height="40" as="geometry" />
        </mxCell>
        <mxCell id="bWsxu2lpcLckADZo8OrW-21" style="edgeStyle=orthogonalEdgeStyle;rounded=0;orthogonalLoop=1;jettySize=auto;html=1;labelBackgroundColor=#DAD2D8;strokeColor=#A8201A;fontColor=#143642;entryX=0.5;entryY=0;entryDx=0;entryDy=0;entryPerimeter=0;" edge="1" parent="1" source="bWsxu2lpcLckADZo8OrW-12" target="bWsxu2lpcLckADZo8OrW-49">
          <mxGeometry relative="1" as="geometry">
            <mxPoint x="270" y="780" as="targetPoint" />
          </mxGeometry>
        </mxCell>
        <mxCell id="bWsxu2lpcLckADZo8OrW-12" value="通过异步命令调用execute方法，开始流程步骤处理" style="rounded=1;whiteSpace=wrap;html=1;absoluteArcSize=1;arcSize=14;strokeWidth=2;fillColor=#FAE5C7;strokeColor=#0F8B8D;fontColor=#143642;" vertex="1" parent="1">
          <mxGeometry x="175" y="570" width="190" height="60" as="geometry" />
        </mxCell>
        <mxCell id="bWsxu2lpcLckADZo8OrW-16" style="edgeStyle=orthogonalEdgeStyle;rounded=0;orthogonalLoop=1;jettySize=auto;html=1;entryX=0.5;entryY=0;entryDx=0;entryDy=0;entryPerimeter=0;labelBackgroundColor=#DAD2D8;strokeColor=#A8201A;fontColor=#143642;" edge="1" parent="1" source="bWsxu2lpcLckADZo8OrW-14" target="bWsxu2lpcLckADZo8OrW-15">
          <mxGeometry relative="1" as="geometry" />
        </mxCell>
        <mxCell id="bWsxu2lpcLckADZo8OrW-14" value="流程步骤处理（process）" style="rounded=1;whiteSpace=wrap;html=1;absoluteArcSize=1;arcSize=14;strokeWidth=2;fillColor=#FAE5C7;strokeColor=#0F8B8D;fontColor=#143642;" vertex="1" parent="1">
          <mxGeometry x="175" y="930" width="190" height="60" as="geometry" />
        </mxCell>
        <mxCell id="bWsxu2lpcLckADZo8OrW-18" style="edgeStyle=orthogonalEdgeStyle;rounded=0;orthogonalLoop=1;jettySize=auto;html=1;entryX=0;entryY=0.5;entryDx=0;entryDy=0;labelBackgroundColor=#DAD2D8;strokeColor=#A8201A;fontColor=#143642;exitX=1;exitY=0.5;exitDx=0;exitDy=0;exitPerimeter=0;" edge="1" parent="1" source="bWsxu2lpcLckADZo8OrW-15" target="bWsxu2lpcLckADZo8OrW-17">
          <mxGeometry relative="1" as="geometry">
            <Array as="points" />
          </mxGeometry>
        </mxCell>
        <mxCell id="bWsxu2lpcLckADZo8OrW-19" value="是" style="edgeLabel;html=1;align=center;verticalAlign=middle;resizable=0;points=[];labelBackgroundColor=#DAD2D8;fontColor=#143642;" vertex="1" connectable="0" parent="bWsxu2lpcLckADZo8OrW-18">
          <mxGeometry x="-0.1889" y="-3" relative="1" as="geometry">
            <mxPoint y="-3" as="offset" />
          </mxGeometry>
        </mxCell>
        <mxCell id="bWsxu2lpcLckADZo8OrW-20" style="edgeStyle=orthogonalEdgeStyle;rounded=0;orthogonalLoop=1;jettySize=auto;html=1;entryX=0.5;entryY=0;entryDx=0;entryDy=0;entryPerimeter=0;labelBackgroundColor=#DAD2D8;strokeColor=#A8201A;fontColor=#143642;" edge="1" parent="1" source="bWsxu2lpcLckADZo8OrW-15" target="bWsxu2lpcLckADZo8OrW-23">
          <mxGeometry relative="1" as="geometry">
            <mxPoint x="270" y="1210" as="targetPoint" />
          </mxGeometry>
        </mxCell>
        <mxCell id="bWsxu2lpcLckADZo8OrW-22" value="否" style="edgeLabel;html=1;align=center;verticalAlign=middle;resizable=0;points=[];labelBackgroundColor=#DAD2D8;fontColor=#143642;" vertex="1" connectable="0" parent="bWsxu2lpcLckADZo8OrW-20">
          <mxGeometry x="-0.1059" relative="1" as="geometry">
            <mxPoint as="offset" />
          </mxGeometry>
        </mxCell>
        <mxCell id="bWsxu2lpcLckADZo8OrW-15" value="是否等待异步回调" style="strokeWidth=2;html=1;shape=mxgraph.flowchart.decision;whiteSpace=wrap;fillColor=none;strokeColor=#0F8B8D;fontColor=#143642;" vertex="1" parent="1">
          <mxGeometry x="190" y="1050" width="160" height="60" as="geometry" />
        </mxCell>
        <mxCell id="bWsxu2lpcLckADZo8OrW-17" value="退出循环，流程暂停，等待回调" style="rounded=1;whiteSpace=wrap;html=1;absoluteArcSize=1;arcSize=14;strokeWidth=2;fillColor=#FAE5C7;strokeColor=#0F8B8D;fontColor=#143642;" vertex="1" parent="1">
          <mxGeometry x="460" y="1057.5" width="140" height="45" as="geometry" />
        </mxCell>
        <mxCell id="bWsxu2lpcLckADZo8OrW-24" style="edgeStyle=orthogonalEdgeStyle;rounded=0;orthogonalLoop=1;jettySize=auto;html=1;entryX=1;entryY=0.5;entryDx=0;entryDy=0;labelBackgroundColor=#DAD2D8;strokeColor=#A8201A;fontColor=#143642;" edge="1" parent="1" source="bWsxu2lpcLckADZo8OrW-23" target="bWsxu2lpcLckADZo8OrW-26">
          <mxGeometry relative="1" as="geometry">
            <mxPoint x="470" y="1225" as="targetPoint" />
          </mxGeometry>
        </mxCell>
        <mxCell id="bWsxu2lpcLckADZo8OrW-25" value="是" style="edgeLabel;html=1;align=center;verticalAlign=middle;resizable=0;points=[];labelBackgroundColor=#DAD2D8;fontColor=#143642;" vertex="1" connectable="0" parent="bWsxu2lpcLckADZo8OrW-24">
          <mxGeometry x="0.2333" y="-1" relative="1" as="geometry">
            <mxPoint as="offset" />
          </mxGeometry>
        </mxCell>
        <mxCell id="bWsxu2lpcLckADZo8OrW-29" style="edgeStyle=orthogonalEdgeStyle;curved=0;rounded=1;sketch=0;orthogonalLoop=1;jettySize=auto;html=1;entryX=0.5;entryY=0;entryDx=0;entryDy=0;entryPerimeter=0;fontColor=#143642;strokeColor=#A8201A;fillColor=#FAE5C7;" edge="1" parent="1" source="bWsxu2lpcLckADZo8OrW-23" target="bWsxu2lpcLckADZo8OrW-28">
          <mxGeometry relative="1" as="geometry" />
        </mxCell>
        <mxCell id="bWsxu2lpcLckADZo8OrW-33" value="否" style="edgeLabel;html=1;align=center;verticalAlign=middle;resizable=0;points=[];fontColor=#143642;labelBackgroundColor=none;" vertex="1" connectable="0" parent="bWsxu2lpcLckADZo8OrW-29">
          <mxGeometry x="-0.3" y="-3" relative="1" as="geometry">
            <mxPoint as="offset" />
          </mxGeometry>
        </mxCell>
        <mxCell id="bWsxu2lpcLckADZo8OrW-23" value="是否需要重试" style="strokeWidth=2;html=1;shape=mxgraph.flowchart.decision;whiteSpace=wrap;fillColor=none;strokeColor=#0F8B8D;fontColor=#143642;" vertex="1" parent="1">
          <mxGeometry x="190" y="1150" width="160" height="60" as="geometry" />
        </mxCell>
        <mxCell id="bWsxu2lpcLckADZo8OrW-27" style="edgeStyle=orthogonalEdgeStyle;rounded=0;orthogonalLoop=1;jettySize=auto;html=1;labelBackgroundColor=#DAD2D8;strokeColor=#A8201A;fontColor=#143642;dashed=1;exitX=1;exitY=0.5;exitDx=0;exitDy=0;entryX=0;entryY=0.5;entryDx=0;entryDy=0;" edge="1" parent="1" source="bWsxu2lpcLckADZo8OrW-26" target="bWsxu2lpcLckADZo8OrW-14">
          <mxGeometry relative="1" as="geometry">
            <mxPoint x="170" y="960" as="targetPoint" />
            <Array as="points">
              <mxPoint x="-140" y="1180" />
              <mxPoint x="-140" y="960" />
            </Array>
          </mxGeometry>
        </mxCell>
        <mxCell id="bWsxu2lpcLckADZo8OrW-26" value="异步命令执行重试" style="rounded=1;whiteSpace=wrap;html=1;absoluteArcSize=1;arcSize=14;strokeWidth=2;fillColor=#FAE5C7;strokeColor=#0F8B8D;fontColor=#143642;" vertex="1" parent="1">
          <mxGeometry x="-110" y="1157.5" width="160" height="45" as="geometry" />
        </mxCell>
        <mxCell id="bWsxu2lpcLckADZo8OrW-31" style="edgeStyle=orthogonalEdgeStyle;curved=0;rounded=1;sketch=0;orthogonalLoop=1;jettySize=auto;html=1;entryX=0.5;entryY=0;entryDx=0;entryDy=0;fontColor=#143642;strokeColor=#A8201A;fillColor=#FAE5C7;entryPerimeter=0;" edge="1" parent="1" source="bWsxu2lpcLckADZo8OrW-28" target="bWsxu2lpcLckADZo8OrW-47">
          <mxGeometry relative="1" as="geometry">
            <mxPoint x="510" y="1360" as="targetPoint" />
          </mxGeometry>
        </mxCell>
        <mxCell id="bWsxu2lpcLckADZo8OrW-32" value="否" style="edgeLabel;html=1;align=center;verticalAlign=middle;resizable=0;points=[];fontColor=#143642;labelBackgroundColor=none;" vertex="1" connectable="0" parent="bWsxu2lpcLckADZo8OrW-31">
          <mxGeometry x="-0.2143" y="2" relative="1" as="geometry">
            <mxPoint y="-2" as="offset" />
          </mxGeometry>
        </mxCell>
        <mxCell id="bWsxu2lpcLckADZo8OrW-37" style="edgeStyle=orthogonalEdgeStyle;curved=0;rounded=1;sketch=0;orthogonalLoop=1;jettySize=auto;html=1;fontColor=#143642;strokeColor=#A8201A;fillColor=#FAE5C7;" edge="1" parent="1" source="bWsxu2lpcLckADZo8OrW-28" target="bWsxu2lpcLckADZo8OrW-36">
          <mxGeometry relative="1" as="geometry" />
        </mxCell>
        <mxCell id="bWsxu2lpcLckADZo8OrW-28" value="是否为成功标识" style="strokeWidth=2;html=1;shape=mxgraph.flowchart.decision;whiteSpace=wrap;fillColor=none;strokeColor=#0F8B8D;fontColor=#143642;" vertex="1" parent="1">
          <mxGeometry x="190" y="1250" width="160" height="60" as="geometry" />
        </mxCell>
        <mxCell id="bWsxu2lpcLckADZo8OrW-40" style="edgeStyle=orthogonalEdgeStyle;curved=0;rounded=1;sketch=0;orthogonalLoop=1;jettySize=auto;html=1;fontColor=#143642;strokeColor=#A8201A;fillColor=#FAE5C7;exitX=1;exitY=0.5;exitDx=0;exitDy=0;" edge="1" parent="1" source="bWsxu2lpcLckADZo8OrW-36">
          <mxGeometry relative="1" as="geometry">
            <mxPoint x="270" y="750" as="targetPoint" />
            <Array as="points">
              <mxPoint x="-200" y="1383" />
              <mxPoint x="-200" y="750" />
              <mxPoint x="270" y="750" />
            </Array>
          </mxGeometry>
        </mxCell>
        <mxCell id="bWsxu2lpcLckADZo8OrW-41" value="执行下一流程" style="edgeLabel;html=1;align=center;verticalAlign=middle;resizable=0;points=[];fontColor=#143642;labelBackgroundColor=none;" vertex="1" connectable="0" parent="bWsxu2lpcLckADZo8OrW-40">
          <mxGeometry x="0.0208" relative="1" as="geometry">
            <mxPoint y="-161" as="offset" />
          </mxGeometry>
        </mxCell>
        <mxCell id="bWsxu2lpcLckADZo8OrW-36" value="将节点类型更新为下一个节点类型" style="rounded=1;whiteSpace=wrap;html=1;absoluteArcSize=1;arcSize=14;strokeWidth=2;fillColor=#FAE5C7;strokeColor=#0F8B8D;fontColor=#143642;" vertex="1" parent="1">
          <mxGeometry x="190" y="1360" width="160" height="45" as="geometry" />
        </mxCell>
        <mxCell id="bWsxu2lpcLckADZo8OrW-38" value="异步回执" style="strokeWidth=2;html=1;shape=mxgraph.flowchart.start_2;whiteSpace=wrap;rounded=0;labelBackgroundColor=none;sketch=0;fontColor=#143642;fillColor=#FAE5C7;" vertex="1" parent="1">
          <mxGeometry x="640" y="460" width="100" height="100" as="geometry" />
        </mxCell>
        <mxCell id="bWsxu2lpcLckADZo8OrW-43" style="edgeStyle=orthogonalEdgeStyle;curved=0;rounded=1;sketch=0;orthogonalLoop=1;jettySize=auto;html=1;entryX=0.5;entryY=0;entryDx=0;entryDy=0;fontColor=#143642;strokeColor=#A8201A;fillColor=#FAE5C7;" edge="1" parent="1" source="bWsxu2lpcLckADZo8OrW-42" target="bWsxu2lpcLckADZo8OrW-14">
          <mxGeometry relative="1" as="geometry" />
        </mxCell>
        <mxCell id="bWsxu2lpcLckADZo8OrW-44" value="否" style="edgeLabel;html=1;align=center;verticalAlign=middle;resizable=0;points=[];fontColor=#143642;labelBackgroundColor=none;" vertex="1" connectable="0" parent="bWsxu2lpcLckADZo8OrW-43">
          <mxGeometry x="-0.2286" y="4" relative="1" as="geometry">
            <mxPoint as="offset" />
          </mxGeometry>
        </mxCell>
        <mxCell id="bWsxu2lpcLckADZo8OrW-46" style="edgeStyle=orthogonalEdgeStyle;curved=0;rounded=1;sketch=0;orthogonalLoop=1;jettySize=auto;html=1;fontColor=#143642;strokeColor=#A8201A;fillColor=#FAE5C7;" edge="1" parent="1" source="bWsxu2lpcLckADZo8OrW-42" target="bWsxu2lpcLckADZo8OrW-45">
          <mxGeometry relative="1" as="geometry" />
        </mxCell>
        <mxCell id="bWsxu2lpcLckADZo8OrW-48" value="是" style="edgeLabel;html=1;align=center;verticalAlign=middle;resizable=0;points=[];fontColor=#143642;labelBackgroundColor=none;" vertex="1" connectable="0" parent="bWsxu2lpcLckADZo8OrW-46">
          <mxGeometry x="-0.5114" relative="1" as="geometry">
            <mxPoint as="offset" />
          </mxGeometry>
        </mxCell>
        <mxCell id="bWsxu2lpcLckADZo8OrW-42" value="&lt;span&gt;&lt;font color=&quot;#000000&quot; style=&quot;font-size: 12px&quot;&gt;所有步骤是否完成&lt;/font&gt;&lt;/span&gt;" style="strokeWidth=2;html=1;shape=mxgraph.flowchart.decision;whiteSpace=wrap;fillColor=none;strokeColor=#0F8B8D;fontColor=#143642;" vertex="1" parent="1">
          <mxGeometry x="192.5" y="780" width="155" height="60" as="geometry" />
        </mxCell>
        <mxCell id="bWsxu2lpcLckADZo8OrW-45" value="流程处理结束，置为SUCCESS状态" style="strokeWidth=2;html=1;shape=mxgraph.flowchart.terminator;whiteSpace=wrap;rounded=0;labelBackgroundColor=none;sketch=0;fontColor=#143642;fillColor=#FAE5C7;" vertex="1" parent="1">
          <mxGeometry x="630" y="1346.88" width="140" height="71.25" as="geometry" />
        </mxCell>
        <mxCell id="bWsxu2lpcLckADZo8OrW-47" value="终止流程，置为FAIL状态" style="strokeWidth=2;html=1;shape=mxgraph.flowchart.terminator;whiteSpace=wrap;rounded=0;labelBackgroundColor=none;sketch=0;fontColor=#143642;fillColor=#FAE5C7;" vertex="1" parent="1">
          <mxGeometry x="440" y="1348.75" width="140" height="67.5" as="geometry" />
        </mxCell>
        <mxCell id="bWsxu2lpcLckADZo8OrW-50" style="edgeStyle=orthogonalEdgeStyle;curved=0;rounded=1;sketch=0;orthogonalLoop=1;jettySize=auto;html=1;entryX=0.5;entryY=0;entryDx=0;entryDy=0;entryPerimeter=0;fontColor=#143642;strokeColor=#A8201A;fillColor=#FAE5C7;" edge="1" parent="1" source="bWsxu2lpcLckADZo8OrW-49" target="bWsxu2lpcLckADZo8OrW-42">
          <mxGeometry relative="1" as="geometry" />
        </mxCell>
        <mxCell id="bWsxu2lpcLckADZo8OrW-49" value="&lt;font color=&quot;#000000&quot; style=&quot;font-size: 12px&quot;&gt;是否为结束节点&lt;br&gt;&lt;font style=&quot;font-size: 12px&quot;&gt;（&lt;/font&gt;&lt;/font&gt;&lt;font style=&quot;font-size: 12px&quot;&gt;&lt;font style=&quot;font-size: 12px&quot;&gt;&lt;span style=&quot;color: rgb(18 , 20 , 22)&quot;&gt;PROCESSOR_FINISH_NODE&lt;/span&gt;&lt;span style=&quot;color: rgb(0 , 0 , 0)&quot;&gt;）&lt;/span&gt;&lt;/font&gt;&lt;br&gt;&lt;/font&gt;&lt;span style=&quot;color: rgba(0 , 0 , 0 , 0) ; font-family: monospace ; font-size: 0px&quot;&gt;%3CmxGraphModel%3E%3Croot%3E%3CmxCell%20id%3D%220%22%2F%3E%3CmxCell%20id%3D%221%22%20parent%3D%220%22%2F%3E%3CmxCell%20id%3D%222%22%20value%3D%22%26lt%3Bspan%26gt%3B%26lt%3Bfont%20color%3D%26quot%3B%23000000%26quot%3B%20style%3D%26quot%3Bfont-size%3A%2012px%26quot%3B%26gt%3B%E6%89%80%E6%9C%89%E6%AD%A5%E9%AA%A4%E6%98%AF%E5%90%A6%E5%AE%8C%E6%88%90%26lt%3B%2Ffont%26gt%3B%26lt%3B%2Fspan%26gt%3B%22%20style%3D%22strokeWidth%3D2%3Bhtml%3D1%3Bshape%3Dmxgraph.flowchart.decision%3BwhiteSpace%3Dwrap%3BfillColor%3Dnone%3BstrokeColor%3D%230F8B8D%3BfontColor%3D%23143642%3B%22%20vertex%3D%221%22%20parent%3D%221%22%3E%3CmxGeometry%20x%3D%22145%22%20y%3D%22780%22%20width%3D%22250%22%20height%3D%2280%22%20as%3D%22geometry%22%2F%3E%3C%2FmxCell%3E%3C%2Froot%3E%3C%2FmxGraphModel%3E&lt;/span&gt;&lt;font color=&quot;#000000&quot;&gt;&lt;br&gt;&lt;/font&gt;" style="strokeWidth=2;html=1;shape=mxgraph.flowchart.decision;whiteSpace=wrap;fillColor=none;strokeColor=#0F8B8D;fontColor=#143642;" vertex="1" parent="1">
          <mxGeometry x="145" y="660" width="250" height="80" as="geometry" />
        </mxCell>
      </root>
    </mxGraphModel>
  </diagram>
</mxfile>
